<?xml version="1.0" encoding="UTF-8"?>
<svg width="42px" height="41px" viewBox="0 0 42 41" version="1.1" xmlns="http://www.w3.org/2000/svg" xmlns:xlink="http://www.w3.org/1999/xlink">
    <!-- Generator: Sketch 54.1 (76490) - https://sketchapp.com -->
    <title>Equal Housing Opportunity Logo Copy</title>
    <desc>Created with Sketch.</desc>
    <defs>
        <polygon id="path-1" points="0.62897031 40.4658979 41.224596 40.4658979 41.224596 0.702233258 0.62897031 0.702233258"></polygon>
    </defs>
    <g id="\\-Branding-+-Navigation" stroke="none" stroke-width="1" fill="none" fill-rule="evenodd">
        <g id="footer/super" transform="translate(-122.000000, -195.000000)">
            <g id="Equal-Housing-Opportunity-Logo-Copy" transform="translate(122.000000, 195.000000)">
                <polygon id="Fill-32" fill="#838D96" points="4.93794326 33.530388 3.5394011 33.530388 3.5394011 34.1607984 4.82387707 34.1607984 4.82387707 34.6932048 3.5394011 34.6932048 3.5394011 35.4675936 5 35.4675936 5 36 3 36 3 33 4.93794326 33"></polygon>
                <g id="Group-36">
                    <path d="M8.70975189,35.5981666 L8.38380929,35.2835483 C8.56724988,35.0439156 8.69722424,34.6939831 8.69722424,34.1894932 C8.69722424,32.7500918 7.65519222,32.5753548 7.25922901,32.5753548 C6.86348949,32.5753548 5.82190489,32.7500918 5.82190489,34.1894932 C5.82190489,35.6300412 6.86348949,35.8038609 7.25922901,35.8038609 C7.43372127,35.8038609 7.74243836,35.7708397 8.02587644,35.5981666 L8.38067738,35.945118 L8.70975189,35.5981666 Z M7.29658825,34.8895876 L7.59680443,35.17944 C7.48427929,35.2402081 7.36280583,35.2613049 7.25922901,35.2613049 C6.92142988,35.2613049 6.4460503,35.0480433 6.4460503,34.1894932 C6.4460503,33.3309431 6.92142988,33.1181401 7.25922901,33.1181401 C7.59680443,33.1181401 8.07173658,33.3309431 8.07173658,34.1894932 C8.07173658,34.4770524 8.01759924,34.6893968 7.93437985,34.8483111 L7.61760928,34.5451586 L7.29658825,34.8895876 Z" id="Fill-2" fill="#838D96"></path>
                    <path d="M11.639477,34.6511244 C11.639477,35.457391 11.1636501,35.8038838 10.4093066,35.8038838 C10.1345931,35.8038838 9.72610223,35.736007 9.45921855,35.4328544 C9.29703022,35.2459638 9.23439197,34.996012 9.22633849,34.6894197 L9.22633849,32.6563254 L9.86368267,32.6563254 L9.86368267,34.6458502 C9.86368267,35.0746666 10.1052873,35.2613278 10.3965552,35.2613278 C10.826522,35.2613278 11.0007906,35.0478369 11.0007906,34.6761195 L11.0007906,32.6563254 L11.639477,32.6563254 L11.639477,34.6511244 Z" id="Fill-4" fill="#838D96"></path>
                    <path d="M12.7628269,35.0898242 L13.8677209,35.0898242 L14.0596624,35.7238763 L14.73884,35.7238763 L13.6851752,32.6563484 L12.9637167,32.6563484 L11.8968531,35.7238763 L12.5552259,35.7238763 L12.7628269,35.0898242 Z M13.3138198,33.3486461 L13.3229918,33.3486461 L13.6934524,34.561715 L12.9297131,34.561715 L13.3138198,33.3486461 Z" id="Fill-6" fill="#838D96"></path>
                    <polygon id="Fill-8" fill="#838D96" points="15.851698 35.1684329 17.3393564 35.1684329 17.3393564 35.7238304 15.2257629 35.7238304 15.2257629 32.6563025 15.851698 32.6563025"></polygon>
                    <polygon id="Fill-10" fill="#838D96" points="19.7099009 34.347238 19.7099009 35.7238075 19.0855318 35.7238075 19.0855318 32.6562796 19.7099009 32.6562796 19.7099009 33.8177529 20.8769858 33.8177529 20.8769858 32.6562796 21.5013549 32.6562796 21.5013549 35.7238075 20.8769858 35.7238075 20.8769858 34.347238"></polygon>
                    <path d="M22.0686561,34.1895849 C22.0686561,35.6299036 23.1111355,35.8039526 23.5050854,35.8039526 C23.9028382,35.8039526 24.9441991,35.6299036 24.9441991,34.1895849 C24.9441991,32.7501835 23.9028382,32.5754465 23.5050854,32.5754465 C23.1111355,32.5754465 22.0686561,32.7501835 22.0686561,34.1895849 M22.6930252,34.1895849 C22.6930252,33.3310348 23.1690759,33.1180025 23.5050854,33.1180025 C23.8435556,33.1180025 24.3189352,33.3310348 24.3189352,34.1895849 C24.3189352,35.0479057 23.8435556,35.2613966 23.5050854,35.2613966 C23.1690759,35.2613966 22.6930252,35.0479057 22.6930252,34.1895849" id="Fill-12" fill="#838D96"></path>
                    <path d="M27.9283301,34.6511244 C27.9283301,35.457391 27.4525031,35.8038838 26.6979359,35.8038838 C26.4229987,35.8038838 26.0154027,35.736007 25.7478479,35.4328544 C25.5852121,35.2459638 25.5225739,34.996012 25.5151915,34.6894197 L25.5151915,32.6563254 L26.1518646,32.6563254 L26.1518646,34.6458502 C26.1518646,35.0746666 26.3943641,35.2613278 26.6865268,35.2613278 C27.1155988,35.2613278 27.2903148,35.0478369 27.2903148,34.6761195 L27.2903148,32.6563254 L27.9283301,32.6563254 L27.9283301,34.6511244 Z" id="Fill-14" fill="#838D96"></path>
                    <path d="M29.072194,34.7789896 C29.0777867,34.9493696 29.1616772,35.2747656 29.7068537,35.2747656 C30.002372,35.2747656 30.3323414,35.2023025 30.3323414,34.8764479 C30.3323414,34.6381911 30.1070674,34.5735246 29.7911916,34.4971632 L29.4699469,34.4196552 C28.9847242,34.3045398 28.5185166,34.1949279 28.5185166,33.5202873 C28.5185166,33.1779221 28.6988253,32.5755153 29.6694944,32.5755153 C30.5869211,32.5755153 30.8325525,33.1898464 30.8370267,33.56615 L30.2361469,33.56615 C30.2198162,33.4306257 30.1697056,33.1047711 29.623858,33.1047711 C29.3867275,33.1047711 29.1030657,33.1944327 29.1030657,33.4719022 C29.1030657,33.7126814 29.2952309,33.7617545 29.4189415,33.7917946 L30.1486771,33.9752455 C30.5573916,34.0782073 30.9318789,34.2497339 30.9318789,34.8000865 C30.9318789,35.7237616 30.0155708,35.8040214 29.7527138,35.8040214 C28.661466,35.8040214 28.473775,35.1585036 28.473775,34.7789896 L29.072194,34.7789896 Z" id="Fill-16" fill="#838D96"></path>
                    <mask id="mask-2" fill="white">
                        <use xlink:href="#path-1"></use>
                    </mask>
                    <g id="Clip-19"></g>
                    <polygon id="Fill-18" fill="#838D96" mask="url(#mask-2)" points="31.4460942 35.7236928 32.0693447 35.7236928 32.0693447 32.6561649 31.4460942 32.6561649"></polygon>
                    <polygon id="Fill-20" fill="#838D96" mask="url(#mask-2)" points="34.5665975 32.6562796 35.1491332 32.6562796 35.1491332 35.7238075 34.5249878 35.7238075 33.3044368 33.5354679 33.2943699 33.5354679 33.2943699 35.7238075 32.7116105 35.7238075 32.7116105 32.6562796 33.3697595 32.6562796 34.556307 34.7923357 34.5665975 34.7923357"></polygon>
                    <path d="M37.2414745,34.0706858 L38.4908838,34.0706858 L38.4908838,35.7238075 L38.0747869,35.7238075 L38.0119249,35.3399365 C37.8539871,35.5259099 37.6246863,35.8040672 37.0783913,35.8040672 C36.3580515,35.8040672 35.7041529,35.2748115 35.7041529,34.1984135 C35.7041529,33.3621068 36.1585039,32.5709749 37.1660849,32.5753319 C38.0846301,32.5753319 38.4470371,33.1857647 38.4783562,33.6097655 L37.8539871,33.6097655 C37.8539871,33.4898345 37.6407933,33.104817 37.1998648,33.104817 C36.7528961,33.104817 36.3410496,33.4205818 36.3410496,34.2062101 C36.3410496,35.0438927 36.7871235,35.261282 37.211945,35.261282 C37.3493018,35.261282 37.8090218,35.2067053 37.9369828,34.5866414 L37.2414745,34.5866414 L37.2414745,34.0706858 Z" id="Fill-21" fill="#838D96" mask="url(#mask-2)"></path>
                    <path d="M2.95484036,38.8497645 C2.95484036,40.2889366 3.99642497,40.4659667 4.39216448,40.4659667 C4.7881277,40.4659667 5.82993601,40.2889366 5.82993601,38.8497645 C5.82993601,37.4105924 4.7881277,37.2356261 4.39216448,37.2356261 C3.99642497,37.2356261 2.95484036,37.4105924 2.95484036,38.8497645 M3.58010432,38.8497645 C3.58010432,37.9912144 4.05503647,37.7768062 4.39216448,37.7768062 C4.7297399,37.7768062 5.20444835,37.9912144 5.20444835,38.8497645 C5.20444835,39.7080853 4.7297399,39.9229521 4.39216448,39.9229521 C4.05503647,39.9229521 3.58010432,39.7080853 3.58010432,38.8497645" id="Fill-22" fill="#838D96" mask="url(#mask-2)"></path>
                    <path d="M7.54259997,39.2772738 L8.25891309,39.2772738 C9.06359089,39.2772738 9.21302786,38.5762622 9.21302786,38.2985634 C9.21302786,37.6968446 8.86381962,37.3164133 8.28396839,37.3164133 L6.91778343,37.3164133 L6.91778343,40.3839412 L7.54259997,40.3839412 L7.54259997,39.2772738 Z M7.54259997,38.7468715 L7.54259997,37.8447518 L8.03856068,37.8447518 C8.42579929,37.8447518 8.58865874,37.9697277 8.58865874,38.268982 C8.58865874,38.4054235 8.58865874,38.7468715 8.12133265,38.7468715 L7.54259997,38.7468715 Z" id="Fill-23" fill="#838D96" mask="url(#mask-2)"></path>
                    <path d="M10.9093611,39.2772738 L11.6261217,39.2772738 C12.4301283,39.2772738 12.5804601,38.5762622 12.5804601,38.2985634 C12.5804601,37.6968446 12.2310282,37.3164133 11.6514007,37.3164133 L10.2840972,37.3164133 L10.2840972,40.3839412 L10.9093611,40.3839412 L10.9093611,39.2772738 Z M10.9093611,38.7468715 L10.9093611,37.8447518 L11.404427,37.8447518 C11.792113,37.8447518 11.9545251,37.9697277 11.9545251,38.268982 C11.9545251,38.4054235 11.9545251,38.7468715 11.4887649,38.7468715 L10.9093611,38.7468715 Z" id="Fill-24" fill="#838D96" mask="url(#mask-2)"></path>
                    <path d="M13.5184903,38.8497645 C13.5184903,40.2889366 14.5598512,40.4659667 14.9564855,40.4659667 C15.3513302,40.4659667 16.3931385,40.2889366 16.3931385,38.8497645 C16.3931385,37.4105924 15.3513302,37.2356261 14.9564855,37.2356261 C14.5598512,37.2356261 13.5184903,37.4105924 13.5184903,38.8497645 M14.1437543,38.8497645 C14.1437543,37.9912144 14.6175679,37.7768062 14.9564855,37.7768062 C15.2927187,37.7768062 15.7685457,37.9912144 15.7685457,38.8497645 C15.7685457,39.7080853 15.2927187,39.9229521 14.9564855,39.9229521 C14.6175679,39.9229521 14.1437543,39.7080853 14.1437543,38.8497645" id="Fill-25" fill="#838D96" mask="url(#mask-2)"></path>
                    <path d="M17.4801359,40.3839641 L18.0944381,40.3839641 L18.0944381,39.1832782 L18.7391647,39.1832782 C19.2022403,39.1832782 19.227743,39.3451736 19.227743,39.7639002 C19.227743,40.0792064 19.2512324,40.2372034 19.2930658,40.3839641 L19.9852184,40.3839641 L19.9852184,40.3011819 C19.8521121,40.2507329 19.8521121,40.1390572 19.8521121,39.692125 C19.8521121,39.1179238 19.7185584,39.0248225 19.4731507,38.9131468 C19.768669,38.8115609 19.9348841,38.5205619 19.9348841,38.1837002 C19.9348841,37.9181551 19.7899213,37.3164362 18.9939681,37.3164362 L17.4801359,37.3164362 L17.4801359,40.3839641 Z M18.0944381,38.6659467 L18.0944381,37.8447748 L18.8724947,37.8447748 C19.2393758,37.8447748 19.3096202,38.0853247 19.3096202,38.2474494 C19.3096202,38.5508313 19.151906,38.6659467 18.8266345,38.6659467 L18.0944381,38.6659467 Z" id="Fill-26" fill="#838D96" mask="url(#mask-2)"></path>
                    <polygon id="Fill-27" fill="#838D96" mask="url(#mask-2)" points="22.2639532 40.3839641 21.6391367 40.3839641 21.6391367 37.8587629 20.7353562 37.8587629 20.7353562 37.3164362 23.1690759 37.3164362 23.1690759 37.8587629 22.2639532 37.8587629"></polygon>
                    <path d="M26.5231528,39.3104096 C26.5231528,40.1175935 26.0482207,40.4659208 25.2934298,40.4659208 C25.0196111,40.4659208 24.6111202,40.3950629 24.3437891,40.0919104 C24.1811534,39.9050198 24.1185152,39.6566732 24.1111328,39.3496223 L24.1111328,37.316528 L24.7478059,37.316528 L24.7478059,39.3058234 C24.7478059,39.7337225 24.9900817,39.9229062 25.2813495,39.9229062 C25.7104215,39.9229062 25.8851375,39.7080394 25.8851375,39.3363221 L25.8851375,37.316528 L26.5231528,37.316528 L26.5231528,39.3104096 Z" id="Fill-28" fill="#838D96" mask="url(#mask-2)"></path>
                    <polygon id="Fill-29" fill="#838D96" mask="url(#mask-2)" points="29.548021 37.3164592 30.1325701 37.3164592 30.1325701 40.3839871 29.5061876 40.3839871 28.2849654 38.1958768 28.2784779 38.1958768 28.2784779 40.3839871 27.6937051 40.3839871 27.6937051 37.3164592 28.3518541 37.3164592 29.5406386 39.451598 29.548021 39.451598"></polygon>
                    <polygon id="Fill-30" fill="#838D96" mask="url(#mask-2)" points="31.2689174 40.3840329 31.895971 40.3840329 31.895971 37.316505 31.2689174 37.316505"></polygon>
                    <polygon id="Fill-31" fill="#838D96" mask="url(#mask-2)" points="34.3363348 40.3839641 33.7112946 40.3839641 33.7112946 37.8587629 32.8086327 37.8587629 32.8086327 37.3164362 35.2410101 37.3164362 35.2410101 37.8587629 34.3363348 37.8587629"></polygon>
                    <polygon id="Fill-32" fill="#838D96" mask="url(#mask-2)" points="37.6041276 40.3839641 36.9781925 40.3839641 36.9781925 39.2257012 35.9453325 37.3164362 36.6824505 37.3164362 37.303464 38.6496655 37.8967377 37.3164362 38.6041025 37.3164362 37.6041276 39.2332685"></polygon>
                    <path d="M34.1576369,25.6678103 L7.2442182,25.6678103 L7.2442182,12.5691887 L20.7763171,5.48018831 L34.1576369,12.5691887 L34.1576369,25.6678103 Z M20.7763171,0.702210327 L0.62894794,10.8738733 L0.62894794,15.651622 L2.88392492,15.651622 L2.88392492,29.9844093 L38.5165879,29.9844093 L38.5165879,15.651622 L41.2245736,15.651622 L41.2245736,10.8738733 L20.7763171,0.702210327 Z" id="Fill-33" fill="#838D96" mask="url(#mask-2)"></path>
                    <polygon id="Fill-34" fill="#838D96" mask="url(#mask-2)" points="14.4617329 17.191715 26.9397195 17.191715 26.9397195 12.5692116 14.4617329 12.5692116"></polygon>
                    <polygon id="Fill-35" fill="#838D96" mask="url(#mask-2)" points="14.4617329 23.8214002 26.9397195 23.8214002 26.9397195 19.1961451 14.4617329 19.1961451"></polygon>
                </g>
            </g>
        </g>
    </g>
</svg>