<?xml version="1.0" encoding="utf-8"?>
<svg width="130px" height="109px" viewBox="0 0 130 109" version="1.1" xmlns:xlink="http://www.w3.org/1999/xlink" xmlns="http://www.w3.org/2000/svg">
  <desc>Created with Lunacy</desc>
  <g id="search-box-expand" transform="translate(20 18)">
    <path d="M2 0L88 0Q88.1025 0 88.2034 0.00932124Q88.3044 0.0186425 88.4029 0.037209Q88.5014 0.0557754 88.5967 0.0834357Q88.692 0.111096 88.7833 0.147624Q88.8747 0.184153 88.9613 0.229252Q89.0478 0.27435 89.129 0.327651Q89.2102 0.380953 89.2852 0.442021Q89.3602 0.50309 89.4286 0.571429Q89.4969 0.639767 89.558 0.714818Q89.619 0.789868 89.6723 0.871019Q89.7257 0.95217 89.7708 1.03876Q89.8158 1.12535 89.8524 1.21667Q89.8889 1.30799 89.9166 1.4033Q89.9442 1.49861 89.9628 1.59713Q89.9814 1.69564 89.9907 1.79657Q90 1.89749 90 2L90 67Q90 67.1025 89.9907 67.2034Q89.9814 67.3044 89.9628 67.4029Q89.9442 67.5014 89.9166 67.5967Q89.8889 67.692 89.8524 67.7833Q89.8158 67.8747 89.7708 67.9613Q89.7257 68.0478 89.6724 68.129Q89.619 68.2101 89.558 68.2852Q89.4969 68.3602 89.4286 68.4286Q89.3602 68.4969 89.2852 68.558Q89.2102 68.619 89.129 68.6723Q89.0478 68.7256 88.9612 68.7708Q88.8747 68.8158 88.7833 68.8524Q88.692 68.8889 88.5967 68.9166Q88.5014 68.9442 88.4029 68.9628Q88.3044 68.9814 88.2034 68.9907Q88.1025 69 88 69L2 69Q1.89749 69 1.79657 68.9907Q1.69564 68.9814 1.59713 68.9628Q1.49861 68.9442 1.4033 68.9166Q1.30799 68.8889 1.21667 68.8524Q1.12535 68.8158 1.03876 68.7708Q0.95217 68.7257 0.871019 68.6724Q0.789868 68.6191 0.714818 68.558Q0.639767 68.4969 0.571429 68.4286Q0.50309 68.3602 0.442021 68.2852Q0.380953 68.2101 0.327651 68.129Q0.27435 68.0478 0.229252 67.9613Q0.184153 67.8747 0.147624 67.7833Q0.111096 67.692 0.0834357 67.5967Q0.0557754 67.5014 0.037209 67.4029Q0.0186425 67.3044 0.00932124 67.2034Q0 67.1025 0 67L0 2Q0 1.89749 0.00932124 1.79657Q0.0186425 1.69564 0.037209 1.59713Q0.0557754 1.49861 0.0834357 1.4033Q0.111096 1.30799 0.147624 1.21667Q0.184153 1.12535 0.229252 1.03876Q0.27435 0.95217 0.327651 0.871019Q0.380953 0.789868 0.442021 0.714818Q0.50309 0.639767 0.571429 0.571429Q0.639767 0.50309 0.714818 0.442021Q0.789868 0.380953 0.871019 0.327651Q0.95217 0.27435 1.03876 0.229252Q1.12535 0.184153 1.21667 0.147624Q1.30799 0.111096 1.4033 0.0834357Q1.49861 0.0557754 1.59713 0.037209Q1.69564 0.0186425 1.79657 0.00932124Q1.89749 0 2 0Z" transform="matrix(-1 0 0 1 90 0)" id="tab" fill="#293847" stroke="none" />
    <path d="M0 0L66 0L66 69L0 69L0 0Z" id="bg" fill="#A0ECCA" stroke="none" />
    <path d="M21.751 18.337L16.876 13.462C19.0964 9.53421 18.0738 4.57003 14.4818 1.8396C10.8898 -0.890823 5.833 -0.547857 2.64257 2.64257C-0.547857 5.833 -0.890823 10.8898 1.8396 14.4818C4.57003 18.0738 9.53421 19.0964 13.462 16.876L18.337 21.751C18.7275 22.1414 19.3605 22.1414 19.751 21.751L21.751 19.751C22.1414 19.3605 22.1414 18.7275 21.751 18.337ZM3.04399 9.04399C3.04399 5.73028 5.73028 3.04399 9.04399 3.04399C12.3577 3.04399 15.044 5.73028 15.044 9.04399C15.044 12.3577 12.3577 15.044 9.04399 15.044C5.73185 15.0402 3.04777 12.3561 3.04399 9.04399Z" transform="translate(22 24)" id="icon-search" fill="#293847" stroke="none" />
    <path d="M0 0L5 7.5L0 15" transform="translate(76.08008 27)" id="arrow" fill="none" stroke="#FFFFFF" stroke-width="1" stroke-linecap="round" stroke-linejoin="round" />
  </g>
</svg>