<?xml version="1.0" encoding="utf-8"?>
<svg width="16px" height="16px" viewBox="0 0 16 16" version="1.1" xmlns:xlink="http://www.w3.org/1999/xlink" xmlns="http://www.w3.org/2000/svg">
  <desc>Created with Lunacy</desc>
  <path d="M15.3 0L0.7 0C0.3 0 0 0.3 0 0.7L0 15.4C0 15.7 0.3 16 0.7 16L8 16L8 11L6 11L6 8L8 8L8 6C8 3.9 9.2 3 11 3C11.9 3 12.8 3 13 3L13 6L12 6C11.4 6 11 6.4 11 7L11 8L13.6 8L13 11L11 11L11 16L15.3 16C15.7 16 16 15.7 16 15.3L16 0.7C16 0.3 15.7 0 15.3 0Z" id="facebook" fill="#818D96" stroke="none" />
</svg>