<?xml version="1.0" encoding="UTF-8"?>
<svg width="16px" height="14px" viewBox="0 0 16 14" version="1.1" xmlns="http://www.w3.org/2000/svg" xmlns:xlink="http://www.w3.org/1999/xlink">
    <!-- Generator: Sketch 54.1 (76490) - https://sketchapp.com -->
    <title>Mask</title>
    <desc>Created with Sketch.</desc>
    <defs>
        <path d="M22,8 C22.6,8 23,8.4 23,9 C23,9.6 22.6,10 22,10 L8,10 C7.4,10 7,9.6 7,9 C7,8.4 7.4,8 8,8 L22,8 Z M22,14 C22.6,14 23,14.4 23,15 C23,15.6 22.6,16 22,16 L8,16 C7.4,16 7,15.6 7,15 C7,14.4 7.4,14 8,14 L22,14 Z M22,20 C22.6,20 23,20.4 23,21 C23,21.6 22.6,22 22,22 L8,22 C7.4,22 7,21.6 7,21 C7,20.4 7.4,20 8,20 L22,20 Z" id="path-1"></path>
    </defs>
    <g id="\\-Icons" stroke="none" stroke-width="1" fill="none" fill-rule="evenodd">
        <g id="icons/ui/menu" transform="translate(-7.000000, -8.000000)">
            <mask id="mask-2" fill="white">
                <use xlink:href="#path-1"></use>
            </mask>
            <use id="Mask" fill="#FFFFFF" fill-rule="nonzero" xlink:href="#path-1"></use>
        </g>
    </g>
</svg>